<svg xmlns="http://www.w3.org/2000/svg" viewBox="0 0 29.37 31.77"><defs><style>.cls-1{fill:none;stroke:#af1a4a;stroke-linecap:round;stroke-linejoin:round;stroke-width:1.5px;}</style></defs><g id="Layer_2" data-name="Layer 2"><g id="Layer_1-2" data-name="Layer 1"><line class="cls-1" x1="14.4" y1="27.97" x2="3.19" y2="27.97"/><line class="cls-1" x1="14.4" y1="16.91" x2="0.75" y2="16.91"/><line class="cls-1" x1="14.4" y1="14.44" x2="0.75" y2="14.44"/><line class="cls-1" x1="14.4" y1="3.12" x2="3.63" y2="3.12"/><path class="cls-1" d="M7,14.44A32.52,32.52,0,0,1,8.8,3.12"/><path class="cls-1" d="M7,17.45S7.77,26.08,8.8,28"/><path class="cls-1" d="M15,31H4.65S.75,25.26.75,15.64,4.65.75,4.65.75h11.5"/><line class="cls-1" x1="14.98" y1="27.97" x2="26.18" y2="27.97"/><line class="cls-1" x1="13.86" y1="16.91" x2="28.62" y2="16.91"/><line class="cls-1" x1="13.58" y1="14.44" x2="28.62" y2="14.44"/><line class="cls-1" x1="14.98" y1="3.12" x2="25.74" y2="3.12"/><path class="cls-1" d="M22.33,14.44A32.66,32.66,0,0,0,20.58,3.12"/><path class="cls-1" d="M22.34,17.45S21.6,26.08,20.58,28"/><path class="cls-1" d="M15,.75h9.74s3.9,5.27,3.9,14.89S24.72,31,24.72,31H15l0-14.11"/><line class="cls-1" x1="15.04" y1="0.75" x2="15.01" y2="14.44"/></g></g></svg>