<svg width="1920" height="17" viewBox="0 0 1920 17" fill="none" xmlns="http://www.w3.org/2000/svg">
<rect y="8" width="925" height="1" fill="#AE194A"/>
<rect x="995" y="8" width="925" height="1" fill="#AE194A"/>
<rect x="933.5" y="4.5" width="3" height="8" rx="0.5" stroke="#AE194A"/>
<path d="M936.5 11.5C936.5 11.5 941 11.5 945.5 11.5C950 11.5 958.5 16.5 963.442 16.5C966.812 16.5 979.188 16.5 985.375 16.5C985.75 16.5 986.5 16.3 986.5 15.5C986.5 14.7 986.5 10.5 986.5 8.5" stroke="#AE194A"/>
<path d="M936.5 5.5C936.5 5.5 941 5.5 945.5 5.5C950 5.5 958.5 0.5 963.442 0.5C966.812 0.5 979.188 0.5 985.375 0.5C985.75 0.5 986.5 0.7 986.5 1.5C986.5 2.3 986.5 6.5 986.5 8.5" stroke="#AE194A"/>
<path d="M952 6.99926C953.134 6.72466 954.327 6.28799 955.233 5.86811M957.031 4.97728C958.408 4.2215 960.625 3.48321 962.506 3.28125" stroke="#AE194A" stroke-linecap="round"/>
<path d="M966.5 2.5H981.5V13.5H966.5V2.5Z" stroke="#AE194A"/>
</svg>
