<svg width="18" height="19" viewBox="0 0 18 19" fill="none" xmlns="http://www.w3.org/2000/svg">
<path d="M9 0.5C13.9355 0.5 18 4.56452 18 9.5C18 14.4718 13.9355 18.5 9 18.5C4.02823 18.5 0 14.4718 0 9.5C0 4.56452 4.02823 0.5 9 0.5ZM9 16.7581C12.9919 16.7581 16.2581 13.5282 16.2581 9.5C16.2581 5.50806 12.9919 2.24194 9 2.24194C4.97177 2.24194 1.74194 5.50806 1.74194 9.5C1.74194 13.5282 4.97177 16.7581 9 16.7581ZM10.5242 12.9839C10.5242 13.8548 9.83468 14.5081 9 14.5081C8.12903 14.5081 7.47581 13.8548 7.47581 12.9839C7.47581 12.1492 8.12903 11.4597 9 11.4597C9.83468 11.4597 10.5242 12.1492 10.5242 12.9839ZM7.54839 5.32661C7.54839 5.07258 7.72984 4.85484 7.98387 4.85484H9.97984C10.2339 4.85484 10.4153 5.07258 10.4153 5.32661L10.1613 10.2621C10.1613 10.4798 9.94355 10.6613 9.72581 10.6613H8.2379C8.02016 10.6613 7.80242 10.4798 7.80242 10.2621L7.54839 5.32661Z" fill="#AE194A"/>
</svg>
