<svg width="14" height="18" viewBox="0 0 14 18" fill="none" xmlns="http://www.w3.org/2000/svg">
<path fill-rule="evenodd" clip-rule="evenodd" d="M5.03797 5.18704C5.11779 5.12104 5.20092 5.05901 5.28705 5.00122C4.1308 4.21995 3.6114 3.26056 3.42909 2.37996C3.29617 1.73788 3.30761 1.00821 3.53367 0.385574C3.64723 0.0791007 3.98172 -0.0757631 4.28129 0.0365786C4.89123 0.269677 5.45881 0.681728 5.92073 1.14521C6.30991 1.53571 6.68687 2.04331 6.94878 2.68158C7.29697 2.25436 7.71793 1.94072 8.12995 1.71573C8.70441 1.40204 9.36821 1.17769 10.0206 1.12135C10.3417 1.09396 10.6235 1.33948 10.6501 1.66973C10.6779 2.01426 10.4166 2.28237 10.0969 2.31949C9.60572 2.37652 9.11242 2.5379 8.677 2.77567C8.09144 3.09542 7.53592 3.61129 7.36089 4.50061C7.96264 4.57139 8.51423 4.81693 8.96188 5.18703C9.49453 4.74447 10.176 4.47951 10.9169 4.47951C12.6085 4.47951 14 5.86512 14 7.59963C14 8.86454 13.26 9.94391 12.2032 10.4356C12.6922 12.1257 11.7144 13.8849 10.0756 14.452C10.2702 16.3029 8.82542 18 7.00073 18C5.17004 18 3.805 16.3883 3.91142 14.6036C1.87238 14.2994 0.5833 12.1362 1.32617 10.1636C0.526793 9.60207 0 8.66688 0 7.59963C0 5.86516 1.39135 4.47951 3.08291 4.47951C3.82383 4.47951 4.50524 4.74452 5.03797 5.18704ZM3.08291 5.67955C3.53877 5.67955 3.95567 5.83847 4.28364 6.10311C4.04299 6.54613 3.90573 7.05552 3.90573 7.59963C3.90573 8.14373 4.04299 8.65312 4.28364 9.09614C3.95567 9.36078 3.53877 9.5197 3.08291 9.5197C2.01353 9.5197 1.16666 8.64877 1.16666 7.59963C1.16666 6.55048 2.01353 5.67955 3.08291 5.67955ZM4.40436 13.4398C2.89996 13.4398 1.94392 11.9577 2.39846 10.6424C3.31587 10.8533 4.30482 10.6212 5.03797 10.0122C5.24047 10.1796 5.46425 10.3216 5.70432 10.4334C5.48342 11.2094 5.55547 12.0532 5.92852 12.7948C5.54404 13.1916 5.00492 13.4398 4.40436 13.4398ZM7.05365 12.4025C6.73291 11.8833 6.66602 11.2684 6.84046 10.7157C7.60246 10.7549 8.36652 10.5044 8.96188 10.0122C9.55135 10.502 10.308 10.7523 11.0641 10.7162C11.4432 11.9227 10.6207 13.2897 9.17607 13.4288L9.17529 13.4289C8.31047 13.5134 7.48912 13.1051 7.05365 12.4025ZM10.9169 9.5197C10.4609 9.5197 10.044 9.36074 9.71621 9.09615C9.95685 8.65312 10.0941 8.14373 10.0941 7.59963C10.0941 7.05552 9.95685 6.54613 9.71621 6.1031C10.044 5.83851 10.4609 5.67955 10.9169 5.67955C11.9864 5.67955 12.8333 6.55053 12.8333 7.59963C12.8333 8.64872 11.9864 9.5197 10.9169 9.5197ZM5.08545 14.5685C5.6814 14.4418 6.21878 14.152 6.64843 13.747C7.26415 14.3128 8.07565 14.6323 8.92109 14.6397C9.01056 15.7757 8.11656 16.8 7.00073 16.8C5.83395 16.8 4.95455 15.7341 5.08545 14.5685ZM4.51513 1.51516C4.48956 2.64612 5.19668 3.55882 6.11514 4.11909C5.96759 2.72612 5.12844 1.93339 4.51513 1.51516ZM6.99699 9.56789C8.06856 9.56789 8.93725 8.67435 8.93725 7.57212C8.93725 6.46988 8.06856 5.57634 6.99699 5.57634C5.92541 5.57634 5.05673 6.46988 5.05673 7.57212C5.05673 8.67435 5.92541 9.56789 6.99699 9.56789Z" fill="#AE194A"/>
<path d="M4.28364 6.10311C3.95567 5.83847 3.53877 5.67955 3.08291 5.67955C2.01353 5.67955 1.16666 6.55048 1.16666 7.59963C1.16666 8.64877 2.01353 9.5197 3.08291 9.5197C3.53877 9.5197 3.95567 9.36078 4.28364 9.09614C4.04299 8.65312 3.90573 8.14373 3.90573 7.59963C3.90573 7.05552 4.04299 6.54613 4.28364 6.10311Z" fill="white"/>
<path d="M6.64843 13.747C6.21878 14.152 5.6814 14.4418 5.08545 14.5685C4.95455 15.7341 5.83395 16.8 7.00073 16.8C8.11656 16.8 9.01056 15.7757 8.92109 14.6397C8.07565 14.6323 7.26415 14.3128 6.64843 13.747Z" fill="white"/>
<path d="M2.39846 10.6424C1.94392 11.9577 2.89996 13.4398 4.40436 13.4398C5.00492 13.4398 5.54404 13.1916 5.92852 12.7948C5.55547 12.0532 5.48342 11.2094 5.70432 10.4334C5.46425 10.3216 5.24047 10.1796 5.03797 10.0122C4.30482 10.6212 3.31587 10.8533 2.39846 10.6424Z" fill="white"/>
<path d="M6.84046 10.7157C6.66602 11.2684 6.73291 11.8833 7.05365 12.4025C7.48912 13.1051 8.31047 13.5134 9.17529 13.4289L9.17607 13.4288C10.6207 13.2897 11.4432 11.9227 11.0641 10.7162C10.308 10.7523 9.55135 10.502 8.96188 10.0122C8.36652 10.5044 7.60246 10.7549 6.84046 10.7157Z" fill="white"/>
<path d="M9.71621 9.09615C10.044 9.36074 10.4609 9.5197 10.9169 9.5197C11.9864 9.5197 12.8333 8.64872 12.8333 7.59963C12.8333 6.55053 11.9864 5.67955 10.9169 5.67955C10.4609 5.67955 10.044 5.83851 9.71621 6.1031C9.95685 6.54613 10.0941 7.05552 10.0941 7.59963C10.0941 8.14373 9.95685 8.65312 9.71621 9.09615Z" fill="white"/>
<path d="M8.93725 7.57212C8.93725 8.67435 8.06856 9.56789 6.99699 9.56789C5.92541 9.56789 5.05673 8.67435 5.05673 7.57212C5.05673 6.46988 5.92541 5.57634 6.99699 5.57634C8.06856 5.57634 8.93725 6.46988 8.93725 7.57212Z" fill="white"/>
<path d="M4.51513 1.51516C4.48956 2.64612 5.19668 3.55882 6.11514 4.11909C5.96759 2.72612 5.12844 1.93339 4.51513 1.51516Z" fill="white"/>
</svg>
