<svg width="14" height="18" viewBox="0 0 14 18" fill="none" xmlns="http://www.w3.org/2000/svg">
<path fill-rule="evenodd" clip-rule="evenodd" d="M5.03797 5.1885C5.11779 5.12251 5.20092 5.06047 5.28705 5.00269C4.1308 4.22141 3.6114 3.26203 3.42909 2.38143C3.29617 1.73934 3.30761 1.00967 3.53367 0.387038C3.64723 0.0805655 3.98172 -0.0742983 4.28129 0.0380434C4.89123 0.271141 5.45881 0.683193 5.92073 1.14667C6.30991 1.53717 6.68687 2.04477 6.94878 2.68305C7.29697 2.25583 7.71793 1.94218 8.12995 1.71719C8.70441 1.4035 9.36821 1.17916 10.0206 1.12281C10.3417 1.09542 10.6235 1.34094 10.6501 1.67119C10.6779 2.01573 10.4166 2.28383 10.0969 2.32095C9.60572 2.37799 9.11242 2.53936 8.677 2.77714C8.09144 3.09689 7.53592 3.61276 7.36089 4.50208C7.96264 4.57286 8.51423 4.8184 8.96188 5.18849C9.49453 4.74594 10.176 4.48097 10.9169 4.48097C12.6085 4.48097 14 5.86658 14 7.60109C14 8.86601 13.26 9.94538 12.2032 10.4371C12.6922 12.1272 11.7144 13.8864 10.0756 14.4535C10.2702 16.3044 8.82542 18.0015 7.00073 18.0015C5.17004 18.0015 3.805 16.3897 3.91142 14.6051C1.87238 14.3009 0.5833 12.1377 1.32617 10.1651C0.526793 9.60353 0 8.66834 0 7.60109C0 5.86663 1.39135 4.48097 3.08291 4.48097C3.82383 4.48097 4.50524 4.74598 5.03797 5.1885ZM3.08291 5.68102C3.53877 5.68102 3.95567 5.83994 4.28364 6.10457C4.04299 6.5476 3.90573 7.05698 3.90573 7.60109C3.90573 8.1452 4.04299 8.65458 4.28364 9.09761C3.95567 9.36224 3.53877 9.52116 3.08291 9.52116C2.01353 9.52116 1.16666 8.65023 1.16666 7.60109C1.16666 6.55195 2.01353 5.68102 3.08291 5.68102ZM4.40436 13.4413C2.89996 13.4413 1.94392 11.9591 2.39846 10.6438C3.31587 10.8547 4.30482 10.6227 5.03797 10.0137C5.24047 10.1811 5.46425 10.323 5.70432 10.4348C5.48342 11.2108 5.55547 12.0547 5.92852 12.7963C5.54404 13.1931 5.00492 13.4413 4.40436 13.4413ZM7.05365 12.4039C6.73291 11.8848 6.66602 11.2699 6.84046 10.7171C7.60246 10.7563 8.36652 10.5059 8.96188 10.0137C9.55135 10.5035 10.308 10.7538 11.0641 10.7177C11.4432 11.9241 10.6207 13.2912 9.17607 13.4303L9.17529 13.4304C8.31047 13.5148 7.48912 13.1066 7.05365 12.4039ZM10.9169 9.52116C10.4609 9.52116 10.044 9.36221 9.71621 9.09762C9.95685 8.65459 10.0941 8.1452 10.0941 7.60109C10.0941 7.05698 9.95685 6.54759 9.71621 6.10456C10.044 5.83997 10.4609 5.68102 10.9169 5.68102C11.9864 5.68102 12.8333 6.55199 12.8333 7.60109C12.8333 8.65019 11.9864 9.52116 10.9169 9.52116ZM5.08545 14.57C5.6814 14.4432 6.21878 14.1535 6.64843 13.7484C7.26415 14.3143 8.07565 14.6338 8.92109 14.6412C9.01056 15.7772 8.11656 16.8014 7.00073 16.8014C5.83395 16.8014 4.95455 15.7356 5.08545 14.57ZM4.51513 1.51663C4.48956 2.64758 5.19668 3.56029 6.11514 4.12055C5.96759 2.72758 5.12844 1.93485 4.51513 1.51663ZM6.99699 9.56936C8.06856 9.56936 8.93725 8.67582 8.93725 7.57358C8.93725 6.47134 8.06856 5.5778 6.99699 5.5778C5.92541 5.5778 5.05673 6.47134 5.05673 7.57358C5.05673 8.67582 5.92541 9.56936 6.99699 9.56936Z" fill="#F18200"/>
<path d="M4.28364 6.10457C3.95567 5.83994 3.53877 5.68102 3.08291 5.68102C2.01353 5.68102 1.16666 6.55195 1.16666 7.60109C1.16666 8.65023 2.01353 9.52116 3.08291 9.52116C3.53877 9.52116 3.95567 9.36224 4.28364 9.09761C4.04299 8.65458 3.90573 8.1452 3.90573 7.60109C3.90573 7.05698 4.04299 6.5476 4.28364 6.10457Z" fill="white"/>
<path d="M6.64843 13.7484C6.21878 14.1535 5.6814 14.4432 5.08545 14.57C4.95455 15.7356 5.83395 16.8014 7.00073 16.8014C8.11656 16.8014 9.01056 15.7772 8.92109 14.6412C8.07565 14.6338 7.26415 14.3143 6.64843 13.7484Z" fill="white"/>
<path d="M2.39846 10.6438C1.94392 11.9591 2.89996 13.4413 4.40436 13.4413C5.00492 13.4413 5.54404 13.1931 5.92852 12.7963C5.55547 12.0547 5.48342 11.2108 5.70432 10.4348C5.46425 10.323 5.24047 10.1811 5.03797 10.0137C4.30482 10.6227 3.31587 10.8547 2.39846 10.6438Z" fill="white"/>
<path d="M6.84046 10.7171C6.66602 11.2699 6.73291 11.8848 7.05365 12.4039C7.48912 13.1066 8.31047 13.5148 9.17529 13.4304L9.17607 13.4303C10.6207 13.2912 11.4432 11.9241 11.0641 10.7177C10.308 10.7538 9.55135 10.5035 8.96188 10.0137C8.36652 10.5059 7.60246 10.7563 6.84046 10.7171Z" fill="white"/>
<path d="M9.71621 9.09762C10.044 9.36221 10.4609 9.52116 10.9169 9.52116C11.9864 9.52116 12.8333 8.65019 12.8333 7.60109C12.8333 6.55199 11.9864 5.68102 10.9169 5.68102C10.4609 5.68102 10.044 5.83997 9.71621 6.10456C9.95685 6.54759 10.0941 7.05698 10.0941 7.60109C10.0941 8.1452 9.95685 8.65459 9.71621 9.09762Z" fill="white"/>
<path d="M8.93725 7.57358C8.93725 8.67582 8.06856 9.56936 6.99699 9.56936C5.92541 9.56936 5.05673 8.67582 5.05673 7.57358C5.05673 6.47134 5.92541 5.5778 6.99699 5.5778C8.06856 5.5778 8.93725 6.47134 8.93725 7.57358Z" fill="white"/>
<path d="M4.51513 1.51663C4.48956 2.64758 5.19668 3.56029 6.11514 4.12055C5.96759 2.72758 5.12844 1.93485 4.51513 1.51663Z" fill="white"/>
</svg>
