<svg width="68" height="68" viewBox="0 0 68 68" fill="none" xmlns="http://www.w3.org/2000/svg">
<path d="M0 10C0 4.47715 4.47715 0 10 0H68V58C68 63.5228 63.5228 68 58 68H10C4.47715 68 0 63.5228 0 58V10Z" fill="#AE194A"/>
<path d="M43 13H47L25 36L21 36L43 13Z" fill="#FFCC1D"/>
<path d="M33 17C33 20.866 29.866 24 26 24C22.134 24 19 20.866 19 17C19 13.134 22.134 10 26 10C29.866 10 33 13.134 33 17ZM22.0189 17C22.0189 19.1987 23.8013 20.9811 26 20.9811C28.1987 20.9811 29.9811 19.1987 29.9811 17C29.9811 14.8013 28.1987 13.0189 26 13.0189C23.8013 13.0189 22.0189 14.8013 22.0189 17Z" fill="#FFCC1D"/>
<path d="M49 32C49 35.866 45.866 39 42 39C38.134 39 35 35.866 35 32C35 28.134 38.134 25 42 25C45.866 25 49 28.134 49 32ZM38.0189 32C38.0189 34.1987 39.8013 35.9811 42 35.9811C44.1987 35.9811 45.9811 34.1987 45.9811 32C45.9811 29.8013 44.1987 28.0189 42 28.0189C39.8013 28.0189 38.0189 29.8013 38.0189 32Z" fill="#FFCC1D"/>
<path d="M32 45H40V48H35V50H39V53H35V57H32V45Z" fill="#FFCC1D"/>
<path d="M42 45H50V48H45V50H49V53H45V57H42V45Z" fill="#FFCC1D"/>
<path d="M30.0075 51C30.0075 54.4518 27.2093 57.25 23.7575 57.25C20.3057 57.25 17.5075 54.4518 17.5075 51C17.5075 47.5482 20.3057 44.75 23.7575 44.75C27.2093 44.75 30.0075 47.5482 30.0075 51ZM20.5152 51C20.5152 52.7907 21.9668 54.2423 23.7575 54.2423C25.5482 54.2423 26.9999 52.7907 26.9999 51C26.9999 49.2093 25.5482 47.7577 23.7575 47.7577C21.9668 47.7577 20.5152 49.2093 20.5152 51Z" fill="#FFCC1D"/>
</svg>
