<svg width="20" height="19" viewBox="0 0 20 19" fill="none" xmlns="http://www.w3.org/2000/svg">
<path fill-rule="evenodd" clip-rule="evenodd" d="M5.33608 5.58753C5.49806 5.44718 5.67436 5.32256 5.8626 5.21614C4.4942 4.37309 3.90902 3.31694 3.71111 2.37127C3.59274 1.80567 3.61744 1.30204 3.67105 0.940275C3.69795 0.758747 3.73245 0.610715 3.76114 0.505552C3.77551 0.452894 3.78848 0.410747 3.79842 0.380268C3.8454 0.248514 3.95441 0.1003 4.08515 0.0418621C4.22589 -0.0210514 4.38867 -0.00864002 4.53099 0.0497409C4.56006 0.0616658 4.60029 0.0787758 4.64998 0.101403C4.74926 0.146611 4.88689 0.214107 5.04911 0.306582C5.37252 0.490958 5.79967 0.778066 6.21562 1.19092C6.66506 1.63702 7.09753 2.22722 7.3725 2.98157C7.75679 2.46014 8.24909 2.08604 8.7351 1.82351C9.23786 1.55193 9.73471 1.39729 10.1028 1.31018C10.313 1.26044 10.526 1.21776 10.7417 1.19906C10.7417 1.19906 11.2005 1.14588 11.2328 1.6337C11.266 2.13513 10.8694 2.17305 10.8694 2.17305C10.8694 2.17305 10.4961 2.24612 10.3431 2.28233C10.0351 2.35523 9.62993 2.48262 9.22916 2.69911C8.54077 3.07096 7.86906 3.69712 7.70729 4.80668C9.38291 4.93115 10.6927 6.31871 10.6927 7.99815C10.6927 9.75882 9.25314 11.1987 7.46167 11.1987C7.3769 11.1987 7.29292 11.1955 7.20984 11.1891C6.96536 11.8508 7.03163 12.6028 7.42291 13.2291C7.92464 14.0299 8.85869 14.4808 9.82773 14.3871C11.5495 14.2232 12.5553 12.4817 11.8701 11.0133H11.2355C10.8972 11.0133 10.9014 10 11.2355 10H18.3599L16.092 7.3635C15.984 7.20752 15.984 6.98916 16.092 6.83319L16.308 6.61483C16.416 6.45885 16.632 6.45885 16.767 6.61483L19.8988 10.2334C20.0337 10.3894 20.0337 10.6077 19.8988 10.7637L16.767 14.3823C16.632 14.5382 16.416 14.5382 16.308 14.3823L16.092 14.1639C15.984 14.0079 15.984 13.7896 16.092 13.6336L18.3599 11.0133H12.9619C13.5191 12.7852 12.471 14.6813 10.6586 15.2378C10.6781 15.3764 10.6927 15.5378 10.6927 15.7102C10.6927 17.5044 9.26907 19 7.46253 19C5.48369 19 4.0606 17.2469 4.24807 15.3773C1.98399 15.124 0.601889 12.7557 1.47282 10.6878C0.584584 10.1162 0 9.12181 0 7.9982C0 6.23966 1.43192 4.79764 3.21878 4.79764C4.03109 4.79764 4.77137 5.09693 5.33608 5.58753ZM5.66324 6.72012C5.72918 6.66919 5.77888 6.60548 5.81151 6.53539C6.21721 6.08197 6.80792 5.79777 7.46167 5.79777C8.67451 5.79777 9.67042 6.77599 9.67042 7.99815C9.67042 9.22031 8.67451 10.1985 7.46167 10.1985C6.80787 10.1985 6.21712 9.91428 5.81142 9.46081C5.77881 9.39085 5.72919 9.32725 5.66339 9.27639C5.40526 8.91693 5.25288 8.4762 5.25288 7.99815C5.25288 7.52019 5.4052 7.07954 5.66324 6.72012ZM4.68552 6.36018C4.29515 6.00912 3.7809 5.79782 3.21878 5.79782C2.01484 5.79782 1.02223 6.7739 1.02223 7.9982C1.02223 9.22249 2.01484 10.1986 3.21878 10.1986C3.78092 10.1986 4.29518 9.98726 4.68555 9.63618C4.39646 9.15628 4.23066 8.59569 4.23066 7.99815C4.23066 7.40063 4.39645 6.84006 4.68552 6.36018ZM5.33614 10.4088C4.77142 10.8994 4.03111 11.1987 3.21878 11.1987C2.93789 11.1987 2.66578 11.1631 2.40662 11.0962C1.7738 12.6512 2.92565 14.3993 4.65041 14.3993C5.36742 14.3993 6.01251 14.0887 6.45688 13.591C6.00341 12.7679 5.92624 11.8123 6.21272 10.9511C5.89044 10.8172 5.59499 10.6331 5.33614 10.4088ZM7.08025 14.4031C6.60052 14.8778 5.97854 15.2139 5.28211 15.3421C5.05864 16.733 6.11073 17.9998 7.46253 17.9998C8.65931 17.9998 9.67042 16.9974 9.67042 15.7102C9.67042 15.6 9.66169 15.4937 9.64928 15.3988C8.68287 15.4183 7.75647 15.0548 7.08025 14.4031ZM4.71255 2.17062C4.63978 1.82287 4.63853 1.5034 4.66291 1.24682C4.90729 1.39697 5.20165 1.60921 5.48763 1.89306C6.04736 2.44863 6.58433 3.28495 6.64318 4.50762C5.3209 3.77715 4.86106 2.88023 4.71255 2.17062Z" fill="#AE194A"/>
</svg>
