<svg width="11" height="12" viewBox="0 0 11 12" fill="none" xmlns="http://www.w3.org/2000/svg">
<path d="M3.5 5.31673C3.77614 5.31673 4 5.09287 4 4.81673C4 4.54059 3.77614 4.31673 3.5 4.31673C3.22386 4.31673 3 4.54059 3 4.81673C3 5.09287 3.22386 5.31673 3.5 5.31673Z" fill="#AE194A"/>
<path d="M5 4.81673C5 4.54059 5.22386 4.31673 5.5 4.31673C5.77614 4.31673 6 4.54059 6 4.81673C6 5.09287 5.77614 5.31673 5.5 5.31673C5.22386 5.31673 5 5.09287 5 4.81673Z" fill="#AE194A"/>
<path d="M7.5 5.31673C7.77614 5.31673 8 5.09287 8 4.81673C8 4.54059 7.77614 4.31673 7.5 4.31673C7.22386 4.31673 7 4.54059 7 4.81673C7 5.09287 7.22386 5.31673 7.5 5.31673Z" fill="#AE194A"/>
<path d="M6 6.81673C6 7.09287 6.22386 7.31673 6.5 7.31673C6.77614 7.31673 7 7.09287 7 6.81673C7 6.54059 6.77614 6.31673 6.5 6.31673C6.22386 6.31673 6 6.54059 6 6.81673Z" fill="#AE194A"/>
<path d="M5 6.81673C5 6.54059 4.77614 6.31673 4.5 6.31673C4.22386 6.31673 4 6.54059 4 6.81673C4 7.09287 4.22386 7.31673 4.5 7.31673C4.77614 7.31673 5 7.09287 5 6.81673Z" fill="#AE194A"/>
<path d="M6 8.81673C6 9.09287 5.77614 9.31673 5.5 9.31673C5.22386 9.31673 5 9.09287 5 8.81673C5 8.54059 5.22386 8.31673 5.5 8.31673C5.77614 8.31673 6 8.54059 6 8.81673Z" fill="#AE194A"/>
<path fill-rule="evenodd" clip-rule="evenodd" d="M0 1C0 0.447715 0.447715 0 1 0H10C10.5523 0 11 0.447715 11 1V11C11 11.5523 10.5523 12 10 12H1C0.447715 12 0 11.5523 0 11V1ZM4 3L4.5 2C5.32321 2 6 2.52731 6 3.44956C6.23156 3.51097 6.3267 3.54357 6.5 3.69868C6.76538 3.46116 7.11582 3.31673 7.5 3.31673C8.32843 3.31673 9 3.98831 9 4.81673C9 5.50847 8.53177 6.09084 7.89496 6.26419C7.96274 6.43519 8 6.62161 8 6.81673C8 7.50847 7.53177 8.09084 6.89496 8.26419C6.96274 8.43519 7 8.62161 7 8.81673C7 9.64516 6.32843 10.3167 5.5 10.3167C4.67157 10.3167 4 9.64516 4 8.81673C4 8.62161 4.03726 8.43519 4.10504 8.26419C3.46823 8.09084 3 7.50847 3 6.81673C3 6.62161 3.03726 6.43519 3.10504 6.26419C2.46823 6.09084 2 5.50847 2 4.81673C2 3.98831 2.67157 3.31673 3.5 3.31673C3.88418 3.31673 4.23462 3.46116 4.5 3.69868C4.61318 3.59738 4.74184 3.51301 4.88198 3.44956C4.88198 3.23763 4.592 3 4 3ZM5 4.81673C5 4.54059 5.22386 4.31673 5.5 4.31673C5.77614 4.31673 6 4.54059 6 4.81673C6 5.09287 5.77614 5.31673 5.5 5.31673C5.22386 5.31673 5 5.09287 5 4.81673ZM3.5 5.31673C3.77614 5.31673 4 5.09287 4 4.81673C4 4.54059 3.77614 4.31673 3.5 4.31673C3.22386 4.31673 3 4.54059 3 4.81673C3 5.09287 3.22386 5.31673 3.5 5.31673ZM5 6.81673C5 6.54059 4.77614 6.31673 4.5 6.31673C4.22386 6.31673 4 6.54059 4 6.81673C4 7.09287 4.22386 7.31673 4.5 7.31673C4.77614 7.31673 5 7.09287 5 6.81673ZM6 6.81673C6 7.09287 6.22386 7.31673 6.5 7.31673C6.77614 7.31673 7 7.09287 7 6.81673C7 6.54059 6.77614 6.31673 6.5 6.31673C6.22386 6.31673 6 6.54059 6 6.81673ZM7.5 5.31673C7.77614 5.31673 8 5.09287 8 4.81673C8 4.54059 7.77614 4.31673 7.5 4.31673C7.22386 4.31673 7 4.54059 7 4.81673C7 5.09287 7.22386 5.31673 7.5 5.31673ZM6 8.81673C6 9.09287 5.77614 9.31673 5.5 9.31673C5.22386 9.31673 5 9.09287 5 8.81673C5 8.54059 5.22386 8.31673 5.5 8.31673C5.77614 8.31673 6 8.54059 6 8.81673Z" fill="#AE194A"/>
</svg>
