<svg xmlns="http://www.w3.org/2000/svg" viewBox="0 0 33.78 34.35"><defs><style>.cls-1{fill:none;stroke:#af1a4a;stroke-linecap:round;stroke-linejoin:round;stroke-width:1.5px;}</style></defs><g id="Layer_2" data-name="Layer 2"><g id="Layer_1-2" data-name="Layer 1"><path class="cls-1" d="M14.65,20.84c.71-2.63,2-5.49,6.48-8.52a12.35,12.35,0,0,0,3.39-4"/><path class="cls-1" d="M16.36,13.79S12.84,5.14,30,.75c0,0,2.27,10.94-7,12.23"/><path class="cls-1" d="M14.53,16s-1.06-6.6-6.43-6.6"/><path class="cls-1" d="M12.17,8.38S10.41,2.37.75,8c0,0,3.31,6,11.82,5.2"/><path class="cls-1" d="M8,33.6a2.59,2.59,0,0,1,.91-2.25,4.33,4.33,0,0,1,1.74-.51,32.49,32.49,0,0,1,6.08-.15,12.08,12.08,0,0,0,4.61-.25c2.2-.74,3.89-2.78,5.63-4.23a33.19,33.19,0,0,0,5.57-6.09,2.31,2.31,0,0,0,.47-1,.88.88,0,0,0-.42-.94c-.4-.18-.86.09-1.21.36-.81.6-1.58,1.27-2.38,1.88a22.87,22.87,0,0,1-6,3.26,23.92,23.92,0,0,1-3.33,1,9.36,9.36,0,0,1-3.24.35,1.12,1.12,0,0,1-.91-.73.33.33,0,0,1,0-.24.5.5,0,0,1,.25-.27c2.13-1.4,4.8-1.81,6.81-3.43.44-.36.88-.91.7-1.45s-1.14-.71-1.83-.56c-2.39.52-4.47,1.88-6.68,2.88s-4.67,1-6.78,2.07a10.7,10.7,0,0,0-3.82,3.77,14.24,14.24,0,0,0-1.58,3"/></g></g></svg>