<svg xmlns="http://www.w3.org/2000/svg" viewBox="0 0 58.39 31.09"><defs><style>.cls-1{fill:none;stroke:#af1a4a;stroke-linecap:round;stroke-linejoin:round;stroke-width:1.5px;}.cls-2{fill:#af1a4a;}</style></defs><g id="Layer_2" data-name="Layer 2"><g id="Layer_1-2" data-name="Layer 1"><path class="cls-1" d="M22.78,11.77a11,11,0,1,0-22,0c0,6.08,11,18.57,11,18.57S22.78,17.85,22.78,11.77Z"/><path class="cls-2" d="M27.66,10.05a18.26,18.26,0,0,1,3.14-.23,5.08,5.08,0,0,1,3.32.92,3.16,3.16,0,0,1,1.1,2.49,3.42,3.42,0,0,1-1,2.55A5,5,0,0,1,30.7,17a5.89,5.89,0,0,1-1-.06v4.24h-2Zm2,5.25a4.52,4.52,0,0,0,1,.08c1.54,0,2.47-.75,2.47-2.07s-.87-1.92-2.29-1.92a5.7,5.7,0,0,0-1.18.1Z"/><path class="cls-2" d="M37,10.05a20.74,20.74,0,0,1,3.27-.23,6.82,6.82,0,0,1,4.59,1.3,5,5,0,0,1,1.76,4.14,5.83,5.83,0,0,1-1.76,4.48,7.48,7.48,0,0,1-5.09,1.53A21.23,21.23,0,0,1,37,21.12Zm2,9.54a7.76,7.76,0,0,0,1.14.05c2.67,0,4.26-1.45,4.26-4.31,0-2.49-1.42-3.91-4-3.91a6.38,6.38,0,0,0-1.41.12Z"/><path class="cls-2" d="M58.39,15.41c0,3.78-2.28,5.93-5.39,5.93s-5.17-2.42-5.17-5.73S50,9.72,53.17,9.72,58.39,12.21,58.39,15.41ZM50,15.58c0,2.29,1.15,4.11,3.12,4.11s3.1-1.84,3.1-4.19c0-2.12-1-4.13-3.1-4.13S50,13.26,50,15.58Z"/><circle class="cls-1" cx="11.77" cy="10.57" r="5.45"/></g></g></svg>