<?xml version="1.0" encoding="UTF-8"?><svg xmlns="http://www.w3.org/2000/svg" viewBox="0 0 218.39977 56.44017"><defs><style>.d{fill:#ae194a;}</style></defs><g id="a"/><g id="b"><g id="c"><g><g><path class="d" d="M75.77747,37.3647c-2.62273,0-5.0555-.48446-7.29658-1.44991-2.24282-.96544-4.2103-2.30207-5.9007-4.0099s-3.00089-3.69099-3.93322-5.95124c-.93059-2.26025-1.39588-4.68431-1.39588-7.27218,0-2.58613,.47401-5.01019,1.42202-7.27044,.94976-2.25851,2.26025-4.24341,3.93322-5.95124s3.64045-3.04445,5.9007-4.0099c2.25851-.96544,4.7-1.44991,7.32272-1.44991,2.69069,0,5.23325,.47575,7.63292,1.42377,2.39618,.94976,4.51004,2.33693,6.33811,4.16499l-1.55098,1.81238c-1.48476-1.62243-3.33897-2.88936-5.56436-3.80426-2.2254-.91316-4.51004-1.37149-6.85569-1.37149-2.31253,0-4.44382,.42347-6.39213,1.26867-1.95005,.8452-3.65788,2.01802-5.12347,3.51846-1.46733,1.50044-2.6053,3.24312-3.41564,5.22628-.81034,1.98491-1.21639,4.13188-1.21639,6.44267,0,2.31253,.40604,4.45951,1.21639,6.44441,.81034,1.98316,1.94134,3.72584,3.3895,5.22628,1.44991,1.50044,3.14901,2.67326,5.09733,3.51846,1.95005,.84694,4.0796,1.26867,6.39213,1.26867,2.79351,0,5.28553-.62911,7.47782-1.88906,2.19054-1.25995,3.95065-2.98346,5.27856-5.17575,1.32792-2.19054,2.06159-4.64772,2.19926-7.37326h-13.92049v-2.2254h16.24871v1.29307c0,2.4502-.43915,4.73485-1.31921,6.85743-.88005,2.12084-2.10515,3.98376-3.67356,5.58876-1.57015,1.60326-3.39996,2.86322-5.48594,3.77812-2.08773,.91316-4.35669,1.37149-6.80515,1.37149Z"/><path class="d" d="M106.15405,36.79485l-11.12524-25.46049h2.48331l9.72936,22.56242,9.67708-22.56242h2.38049l-11.0747,25.46049h-2.0703Z"/><path class="d" d="M124.31795,5.58876c-.55243,0-1.01772-.18821-1.39588-.56811-.3799-.3799-.56985-.8452-.56985-1.39763s.18995-1.01772,.56985-1.39763c.37816-.3799,.84345-.56985,1.39588-.56985,.58728,0,1.06129,.18995,1.42377,.56985s.54371,.8452,.54371,1.39763-.18124,1.01772-.54371,1.39763-.83648,.56811-1.42377,.56811Zm-1.13797,31.20609V11.33436h2.27768v25.46049h-2.27768Z"/><path class="d" d="M132.49459,36.79485V11.33436h2.27768v3.57074c2.0703-2.72554,4.88123-4.08832,8.43455-4.08832,1.93263,0,3.63174,.40604,5.09733,1.21464,1.46559,.81209,2.6053,1.95005,3.41564,3.41564,.81034,1.46733,1.21639,3.16644,1.21639,5.09733v16.25045h-2.27768v-15.62831c0-2.55302-.70753-4.56232-2.12084-6.02966-1.41505-1.46559-3.36336-2.19926-5.84842-2.19926-1.72525,0-3.27797,.40604-4.65643,1.21639-1.3802,.81034-2.46763,1.97619-3.26055,3.49232v19.14852h-2.27768Z"/><path class="d" d="M161.00824,5.58876c-.55243,0-1.01772-.18821-1.39588-.56811-.3799-.3799-.56985-.8452-.56985-1.39763s.18995-1.01772,.56985-1.39763c.37816-.3799,.84345-.56985,1.39588-.56985,.58728,0,1.06129,.18995,1.42377,.56985s.54371,.8452,.54371,1.39763-.18124,1.01772-.54371,1.39763-.83648,.56811-1.42377,.56811Zm-1.13797,31.20609V11.33436h2.27768v25.46049h-2.27768Z"/><path class="d" d="M180.67433,37.31242c-2.34738,0-4.48565-.58554-6.41827-1.7601-1.93263-1.17282-3.45921-2.75866-4.57975-4.76099-1.12054-2.00059-1.68168-4.24341-1.68168-6.72673,0-2.48506,.56114-4.72614,1.68168-6.72847,1.12054-2.00059,2.64712-3.58643,4.57975-4.76099,1.93263-1.17282,4.07089-1.75836,6.41827-1.75836,1.72351,0,3.45747,.34505,5.20014,1.03515,1.74093,.6901,3.26926,1.63811,4.57975,2.84579l-1.55272,1.86292c-1.10486-1.10311-2.37178-1.97445-3.80252-2.61401-1.43248-.63782-2.90678-.95673-4.42465-.95673-1.93263,0-3.68402,.49143-5.25417,1.4743s-2.81094,2.31253-3.72584,3.9855c-.91316,1.67297-1.37149,3.5446-1.37149,5.6149s.45832,3.94193,1.37149,5.6149c.9149,1.67297,2.15569,3.00089,3.72584,3.98376,1.57015,.98461,3.32154,1.47605,5.25417,1.47605,1.51787,0,2.99217-.32762,4.42465-.98287,1.43074-.65525,2.69766-1.51787,3.80252-2.58787l1.55272,1.86292c-1.31049,1.20767-2.83882,2.15569-4.57975,2.84579-1.74268,.6901-3.47664,1.03515-5.20014,1.03515Z"/><path class="d" d="M205.72181,37.31242c-2.34738,0-4.48565-.58554-6.41827-1.7601-1.93263-1.17282-3.45921-2.76737-4.57975-4.78713-1.12054-2.01802-1.68168-4.25039-1.68168-6.70059,0-2.48506,.56114-4.72614,1.68168-6.72847,1.12054-2.00059,2.64712-3.58643,4.57975-4.76099,1.93263-1.17282,4.07089-1.75836,6.41827-1.75836,2.38049,0,4.52747,.58554,6.44267,1.75836,1.91346,1.17456,3.43133,2.7604,4.55361,4.76099,1.12054,2.00233,1.68168,4.24341,1.68168,6.72847,0,2.4502-.56114,4.68257-1.68168,6.70059-1.12228,2.01976-2.64015,3.61431-4.55361,4.78713-1.9152,1.17456-4.06218,1.7601-6.44267,1.7601Zm0-2.17312c1.93088,0,3.68227-.49143,5.25242-1.47605,1.56841-.98287,2.81094-2.31079,3.72584-3.98376,.91316-1.67297,1.37149-3.5446,1.37149-5.6149s-.45832-3.94193-1.37149-5.6149c-.9149-1.67297-2.15743-3.00263-3.72584-3.9855-1.57015-.98287-3.32154-1.4743-5.25242-1.4743-1.93263,0-3.68402,.49143-5.25417,1.4743s-2.81094,2.31253-3.72584,3.9855c-.91316,1.67297-1.37149,3.5446-1.37149,5.6149s.45832,3.94193,1.37149,5.6149c.9149,1.67297,2.15569,3.00089,3.72584,3.98376,1.57015,.98461,3.32154,1.47605,5.25417,1.47605Z"/></g><g><path class="d" d="M66.2718,49.90757h.58654v3.1408c-.36675,.35115-.81284,.61906-1.33565,.80243-.52412,.18468-1.07685,.27571-1.66079,.27571-.83104,0-1.58015-.18338-2.24733-.55143-.66718-.36675-1.18999-.87526-1.56975-1.52163-.37976-.64767-.56964-1.37467-.56964-2.1823,0-.80633,.18988-1.53333,.56964-2.181,.37976-.64767,.90257-1.15488,1.56975-1.52163,.66718-.36805,1.42019-.55143,2.25903-.55143,.61515,0,1.18089,.09754,1.6959,.29392,.51631,.19508,.9572,.4812,1.32525,.85575l-.38366,.40837c-.35245-.35115-.74521-.60605-1.18089-.76081-.43568-.15606-.91688-.2341-1.4436-.2341-.7192,0-1.36947,.15997-1.94821,.4799-.58004,.31863-1.03263,.76081-1.36036,1.32395s-.4916,1.19259-.4916,1.88708c0,.68798,.16647,1.31354,.49811,1.87668,.33034,.56313,.78422,1.00662,1.36036,1.33045,.57484,.32383,1.22251,.4851,1.9417,.4851,.9585,0,1.75312-.25621,2.38519-.76732v-2.88849Z"/><path class="d" d="M74.63686,51.08196h-5.38162c.01691,.4877,.14046,.92078,.37195,1.30054s.54493,.67368,.94159,.88176c.39536,.20679,.84015,.31083,1.33565,.31083,.40707,0,.78552-.07413,1.13277-.22109,.34724-.14826,.63726-.36545,.86876-.65417l.34724,.39666c-.27051,.32774-.61255,.57874-1.02352,.75431-.41227,.17557-.85705,.26401-1.33695,.26401-.62296,0-1.17829-.13656-1.66599-.40707-.4877-.27181-.86876-.64767-1.14447-1.12757-.27571-.4786-.41357-1.02612-.41357-1.64128,0-.60735,.13005-1.15358,.38886-1.63608,.26011-.4838,.61776-.86096,1.07294-1.13277s.9676-.40837,1.53463-.40837,1.07685,.13396,1.52813,.40187,.80633,.64117,1.06644,1.12106c.26011,.4786,.39016,1.02222,.39016,1.62957l-.01301,.16777Zm-4.15912-2.49833c-.35115,.19508-.63336,.47079-.84405,.82714-.21199,.35505-.33424,.75691-.36545,1.2043h4.79378c-.02341-.44738-.14436-.84665-.35895-1.1991-.21589-.35115-.49941-.62686-.85185-.82714-.35115-.19898-.74651-.29912-1.18609-.29912s-.83495,.09754-1.18739,.29392Z"/><path class="d" d="M77.35238,53.70774c-.476-.27181-.84925-.65027-1.12106-1.13277-.27181-.4838-.40707-1.02873-.40707-1.63608s.13526-1.15358,.40707-1.63608c.27181-.4838,.64507-.86096,1.12106-1.13277,.4747-.27181,1.00792-.40837,1.59966-.40837s1.12497,.13656,1.60096,.40837c.4747,.27181,.84795,.64897,1.11976,1.13277,.27181,.4825,.40837,1.02873,.40837,1.63608s-.13656,1.15228-.40837,1.63608c-.27181,.4825-.64507,.86096-1.11976,1.13277-.476,.27051-1.00922,.40707-1.60096,.40707s-1.12497-.13656-1.59966-.40707Zm2.88849-.46819c.37976-.22369,.67888-.53452,.89867-.93509,.21979-.39927,.33034-.85445,.33034-1.36556s-.11055-.9676-.33034-1.36687-.51891-.71139-.89867-.93509-.80893-.33554-1.28883-.33554c-.4786,0-.90908,.11185-1.28883,.33554-.37846,.22369-.67888,.53582-.89867,.93509s-.32904,.85575-.32904,1.36687,.10925,.9663,.32904,1.36556c.21979,.40057,.52022,.71139,.89867,.93509,.37976,.22369,.81023,.33554,1.28883,.33554,.4799,0,.90908-.11185,1.28883-.33554Z"/><path class="d" d="M85.41311,48.12714c.40707-.2432,.90257-.36545,1.48521-.36545v.58784l-.14306-.0117c-.69579,0-1.23941,.21719-1.62957,.65287-.39276,.43568-.58784,1.04043-.58784,1.81555v3.26045h-.59955v-6.25689h.57614v1.36687c.19118-.45519,.4903-.80503,.89867-1.04953Z"/><path class="d" d="M94.12671,47.80981v5.58581c0,1.03913-.2523,1.80515-.75561,2.30065s-1.26282,.74391-2.27724,.74391c-.57484,0-1.11846-.08844-1.62957-.26401-.51241-.17557-.92338-.42007-1.23551-.7309l.32383-.45519c.31213,.28742,.68798,.51111,1.12757,.67108,.43828,.15997,.90647,.2393,1.40198,.2393,.83104,0,1.4462-.19768,1.84546-.59305s.59955-1.00922,.59955-1.84026v-1.05474c-.25621,.45519-.61125,.80763-1.06644,1.05474-.45649,.2484-.9676,.37195-1.53463,.37195-.58394,0-1.11326-.13005-1.58796-.39016-.476-.25881-.84925-.62036-1.12106-1.08465-.27181-.46299-.40707-.98581-.40707-1.56975,0-.58264,.13526-1.10676,.40707-1.56975,.27181-.46429,.64507-.82324,1.12106-1.07945,.4747-.25491,1.00402-.38366,1.58796-.38366,.57484,0,1.09505,.12875,1.55804,.38366,.46299,.25621,.81934,.61515,1.06644,1.07945v-1.41499h.57614Zm-1.83376,5.17224c.39146-.21199,.69709-.50721,.91688-.88697s.32904-.81284,.32904-1.30054-.10925-.91818-.32904-1.29404-.52542-.66978-.91688-.88176c-.39146-.21069-.83104-.31733-1.31875-.31733s-.92468,.10664-1.31224,.31733c-.38756,.21199-.69189,.50591-.91168,.88176s-.32904,.80633-.32904,1.29404,.10925,.92078,.32904,1.30054,.52412,.67498,.91168,.88697,.82454,.31733,1.31224,.31733,.92728-.10534,1.31875-.31733Z"/><path class="d" d="M96.61854,46.15032c-.09494-.09234-.14306-.20548-.14306-.34204,0-.13526,.04812-.251,.14306-.34724,.09624-.09624,.21199-.14436,.34854-.14436,.13526,0,.251,.04682,.34724,.13786,.09624,.09234,.14306,.20679,.14306,.34204,0,.13656-.04682,.251-.14306,.34724s-.21199,.14436-.34724,.14436c-.13656,0-.2523-.04552-.34854-.13786Zm.04812,1.65949h.59955v6.25689h-.59955v-6.25689Z"/><path class="d" d="M103.69087,48.35603c.41487,.39536,.62296,.9767,.62296,1.74402v3.96664h-.57484v-1.11456c-.20028,.36805-.4916,.65287-.87526,.85705s-.84275,.30563-1.37857,.30563c-.69449,0-1.24461-.16387-1.64778-.4916s-.60605-.75951-.60605-1.29404c0-.52022,.18598-.94159,.55793-1.26542,.37195-.32253,.965-.4851,1.78044-.4851h2.14459v-.50331c0-.58264-.15737-1.02612-.4734-1.33045-.31603-.30303-.77642-.45519-1.38377-.45519-.41617,0-.81284,.07153-1.19259,.21589-.37976,.14306-.70099,.33554-.965,.57484l-.29912-.43178c.31083-.27962,.68668-.49681,1.12627-.65287s.89867-.2341,1.37857-.2341c.77512,0,1.36947,.19768,1.78564,.59435Zm-.79723,4.90823c.36285-.2406,.63726-.58784,.82064-1.04303v-1.17439h-2.13288c-.61515,0-1.06124,.11185-1.33695,.33554s-.41357,.53062-.41357,.92208c0,.40837,.15216,.7296,.45649,.965,.30303,.2354,.7309,.35375,1.28233,.35375,.51891,0,.9598-.11965,1.32395-.35895Z"/><path class="d" d="M111.69698,48.44577c.45519,.45519,.68408,1.11066,.68408,1.96511v3.65581h-.59955v-3.60769c0-.70359-.17817-1.23811-.53322-1.60616-.35635-.36675-.85315-.55143-1.49302-.55143-.7348,0-1.31484,.21979-1.73752,.65937-.42398,.43958-.63596,1.03133-.63596,1.77393v3.33198h-.59825v-6.25689h.57484v1.35516c.21589-.43958,.53712-.78292,.965-1.03133,.42788-.2471,.93249-.37195,1.51643-.37195,.78292,0,1.40198,.22759,1.85717,.68408Z"/><path class="d" d="M126.87165,47.80981l-2.37348,6.25689h-.56313l-2.10947-5.42974-2.12118,5.42974h-.55143l-2.37348-6.25689h.57484l2.08606,5.58581,2.13288-5.58581h.51631l2.12118,5.5741,2.10947-5.5741h.55143Z"/><path class="d" d="M128.21381,46.15032c-.09624-.09234-.14436-.20548-.14436-.34204,0-.13526,.04812-.251,.14436-.34724s.21199-.14436,.34724-.14436,.2523,.04682,.34724,.13786c.09624,.09234,.14436,.20679,.14436,.34204,0,.13656-.04812,.251-.14436,.34724-.09494,.09624-.21199,.14436-.34724,.14436s-.251-.04552-.34724-.13786Zm.04812,1.65949h.59825v6.25689h-.59825v-6.25689Z"/><path class="d" d="M136.30315,48.44577c.45519,.45519,.68408,1.11066,.68408,1.96511v3.65581h-.59955v-3.60769c0-.70359-.17817-1.23811-.53322-1.60616-.35635-.36675-.85315-.55143-1.49302-.55143-.7348,0-1.31484,.21979-1.73752,.65937-.42398,.43958-.63596,1.03133-.63596,1.77393v3.33198h-.59825v-6.25689h.57484v1.35516c.21589-.43958,.53712-.78292,.965-1.03133,.42788-.2471,.93249-.37195,1.51643-.37195,.78292,0,1.40198,.22759,1.85717,.68408Z"/><path class="d" d="M144.75274,51.08196h-5.38162c.01691,.4877,.14046,.92078,.37195,1.30054s.54493,.67368,.94159,.88176c.39536,.20679,.84015,.31083,1.33565,.31083,.40707,0,.78552-.07413,1.13277-.22109,.34724-.14826,.63726-.36545,.86876-.65417l.34724,.39666c-.27051,.32774-.61255,.57874-1.02352,.75431-.41227,.17557-.85705,.26401-1.33695,.26401-.62296,0-1.17829-.13656-1.66599-.40707-.4877-.27181-.86876-.64767-1.14447-1.12757-.27571-.4786-.41357-1.02612-.41357-1.64128,0-.60735,.13005-1.15358,.38886-1.63608,.26011-.4838,.61776-.86096,1.07294-1.13277s.9676-.40837,1.53463-.40837,1.07685,.13396,1.52813,.40187,.80633,.64117,1.06644,1.12106c.26011,.4786,.39016,1.02222,.39016,1.62957l-.01301,.16777Zm-4.15912-2.49833c-.35115,.19508-.63336,.47079-.84405,.82714-.21199,.35505-.33424,.75691-.36545,1.2043h4.79378c-.02341-.44738-.14436-.84665-.35895-1.1991-.21589-.35115-.49941-.62686-.85185-.82714-.35115-.19898-.74651-.29912-1.18609-.29912s-.83495,.09754-1.18739,.29392Z"/><path class="d" d="M149.65577,46.15032c-.09624-.09234-.14436-.20548-.14436-.34204,0-.13526,.04812-.251,.14436-.34724s.21199-.14436,.34724-.14436,.2523,.04682,.34724,.13786c.09624,.09234,.14436,.20679,.14436,.34204,0,.13656-.04812,.251-.14436,.34724-.09494,.09624-.21199,.14436-.34724,.14436s-.251-.04552-.34724-.13786Zm.04812,1.65949h.59825v6.25689h-.59825v-6.25689Z"/><path class="d" d="M162.44916,48.44577c.44348,.45519,.66588,1.11066,.66588,1.96511v3.65581h-.59955v-3.60769c0-.70359-.17167-1.23811-.51501-1.60616-.34334-.36675-.82324-.55143-1.43839-.55143-.70359,0-1.26022,.21979-1.67249,.65937-.41097,.43958-.61645,1.03133-.61645,1.77393v3.33198h-.59955v-3.60769c0-.70359-.17167-1.23811-.51501-1.60616-.34464-.36675-.82324-.55143-1.43839-.55143-.70359,0-1.26152,.21979-1.67249,.65937s-.61776,1.03133-.61776,1.77393v3.33198h-.59825v-6.25689h.57484v1.34215c.20809-.43828,.51761-.78032,.92858-1.02482,.41227-.2432,.90127-.36545,1.46831-.36545s1.04953,.12875,1.4449,.38366c.39536,.25621,.67628,.63206,.84405,1.12757,.20809-.46429,.53452-.83104,.978-1.10286s.9598-.40837,1.55154-.40837c.77512,0,1.38377,.22759,1.82726,.68408Z"/><path class="d" d="M170.30701,48.17005c.47079,.27181,.84015,.64637,1.10806,1.12627s.40187,1.02742,.40187,1.64258-.13396,1.16398-.40187,1.64778-.63726,.85835-1.10806,1.12627c-.4721,.26791-.99881,.40187-1.58275,.40187-.55143,0-1.05083-.13005-1.49822-.39016-.44738-.25881-.79463-.62036-1.04303-1.08465v3.75205h-.59825v-8.58225h.57484v1.47481c.2471-.4799,.59695-.85315,1.04823-1.12106,.45129-.26791,.9572-.40187,1.51643-.40187,.58394,0,1.11066,.13656,1.58275,.40837Zm-.32383,5.0695c.38366-.22369,.68538-.53452,.90517-.93509,.21979-.39927,.32904-.85445,.32904-1.36556s-.10925-.9676-.32904-1.36687-.52152-.71139-.90517-.93509-.81544-.33554-1.29404-.33554c-.4799,0-.90908,.11185-1.28883,.33554s-.67888,.53582-.89867,.93509-.33034,.85575-.33034,1.36687,.11055,.9663,.33034,1.36556c.21979,.40057,.51891,.71139,.89867,.93509s.80893,.33554,1.28883,.33554c.4786,0,.91038-.11185,1.29404-.33554Z"/><path class="d" d="M174.51945,53.70774c-.476-.27181-.84925-.65027-1.12106-1.13277-.27181-.4838-.40707-1.02873-.40707-1.63608s.13526-1.15358,.40707-1.63608c.27181-.4838,.64507-.86096,1.12106-1.13277,.4747-.27181,1.00792-.40837,1.59966-.40837s1.12497,.13656,1.60096,.40837c.4747,.27181,.84795,.64897,1.11976,1.13277,.27181,.4825,.40837,1.02873,.40837,1.63608s-.13656,1.15228-.40837,1.63608c-.27181,.4825-.64507,.86096-1.11976,1.13277-.476,.27051-1.00922,.40707-1.60096,.40707s-1.12497-.13656-1.59966-.40707Zm2.88849-.46819c.37976-.22369,.67888-.53452,.89867-.93509,.21979-.39927,.33034-.85445,.33034-1.36556s-.11055-.9676-.33034-1.36687-.51891-.71139-.89867-.93509-.80893-.33554-1.28883-.33554c-.4786,0-.90908,.11185-1.28883,.33554-.37846,.22369-.67888,.53582-.89867,.93509s-.32904,.85575-.32904,1.36687,.10925,.9663,.32904,1.36556c.21979,.40057,.52022,.71139,.89867,.93509,.37976,.22369,.81023,.33554,1.28883,.33554,.4799,0,.90908-.11185,1.28883-.33554Z"/><path class="d" d="M182.58018,48.12714c.40707-.2432,.90257-.36545,1.48521-.36545v.58784l-.14306-.0117c-.69579,0-1.23941,.21719-1.62957,.65287-.39276,.43568-.58784,1.04043-.58784,1.81555v3.26045h-.59955v-6.25689h.57614v1.36687c.19118-.45519,.4903-.80503,.89867-1.04953Z"/><path class="d" d="M189.11278,53.67133c-.15216,.14306-.34204,.2536-.56964,.32904-.22759,.07673-.46559,.11445-.714,.11445-.54232,0-.9624-.14956-1.25762-.44999-.29652-.29912-.44348-.7166-.44348-1.25242v-4.08629h-1.15098v-.51631h1.15098v-1.36556h.59955v1.36556h1.98852v.51631h-1.98852v4.02646c0,.40707,.09754,.7179,.29262,.92858,.19638,.21199,.4864,.31863,.87006,.31863,.39146,0,.714-.11575,.9702-.34854l.2523,.42007Z"/><path class="d" d="M198.77318,48.44577c.45519,.45519,.68278,1.11066,.68278,1.96511v3.65581h-.59955v-3.60769c0-.70359-.17817-1.23811-.53322-1.60616-.35505-.36675-.85315-.55143-1.49172-.55143-.7361,0-1.31484,.21979-1.73882,.65937-.42267,.43958-.63466,1.03133-.63466,1.77393v3.33198h-.59955v-8.89308h.59955v3.94323c.21589-.43178,.53452-.76472,.9585-1.00141,.42398-.2354,.92338-.35375,1.49822-.35375,.78292,0,1.40198,.22759,1.85847,.68408Z"/><path class="d" d="M207.40225,47.80981v6.25689h-.57484v-1.34215c-.20809,.43958-.51501,.78032-.92338,1.02482-.40707,.2432-.88697,.36545-1.43839,.36545-.81414,0-1.454-.22759-1.91699-.68278-.46429-.45649-.69579-1.11066-.69579-1.96641v-3.65581h.59955v3.60769c0,.70359,.17947,1.23941,.53972,1.60616,.35895,.36805,.86616,.55143,1.52163,.55143,.70359,0,1.26022-.21979,1.67249-.65937,.41097-.43958,.61776-1.03003,.61776-1.77393v-3.33198h.59825Z"/><path class="d" d="M214.66575,48.16355c.4721,.26791,.84145,.64377,1.10936,1.12627,.26791,.4838,.40057,1.03393,.40057,1.64908s-.13265,1.16268-.40057,1.64128c-.26791,.4799-.63726,.85575-1.10936,1.12757-.47079,.27051-.99881,.40707-1.58145,.40707-.55923,0-1.06514-.13396-1.51643-.40187-.45129-.26791-.80113-.64117-1.04823-1.12106v1.47481h-.57614v-8.89308h.59955v4.06288c.2471-.46299,.59565-.82454,1.04303-1.08465s.94679-.39016,1.49822-.39016c.58264,0,1.11066,.13396,1.58145,.40187Zm-.32383,5.076c.38366-.22369,.68538-.53452,.90517-.93509,.21979-.39927,.33034-.85445,.33034-1.36556s-.11055-.9676-.33034-1.36687-.52152-.71139-.90517-.93509c-.38236-.22369-.81414-.33554-1.29404-.33554s-.90908,.11185-1.28883,.33554c-.37976,.22369-.67888,.53582-.89867,.93509s-.32904,.85575-.32904,1.36687,.10925,.9663,.32904,1.36556c.21979,.40057,.51891,.71139,.89867,.93509s.80893,.33554,1.28883,.33554,.91168-.11185,1.29404-.33554Z"/></g><g><g><g><path class="d" d="M40.16693,29.3184l-9.10374-5.11388V14.246l9.10374,5.1104v9.962Zm-7.76536-5.89634l6.42699,3.60995v-6.89141l-6.42699-3.60821v6.88967Z"/><path class="d" d="M38.82855,29.3184v-9.962l8.41538-4.72352,.68313,.36248,.00523,.40779v8.80138l-9.10374,5.11388Zm1.33837-9.17867v6.89228l6.42699-3.60995v-6.89141l-6.42699,3.60908Z"/><path class="d" d="M39.49774,20.46474l-9.16822-5.15048,9.16822-4.8002,8.44675,4.42291-.04705,.82603-.34854,.17862-8.05116,4.52311Zm-6.36251-5.10865l6.36251,3.57336,6.36599-3.5751-6.36599-3.32938-6.36251,3.33112Z"/></g><g><path class="d" d="M24.63446,29.3184l-9.10374-5.11388V14.246l9.10374,5.1104v9.962Zm-7.76536-5.89634l6.42699,3.60995v-6.89141l-6.42699-3.60821v6.88967Z"/><path class="d" d="M23.29609,29.3184v-9.962l9.10548-5.1104v9.95939l-9.10548,5.11301Zm1.33837-9.1778v6.89141l6.42873-3.61082v-6.8888l-6.42873,3.60821Z"/><path class="d" d="M23.96702,20.46474l-9.16996-5.15048,9.16996-4.8002,9.16822,4.8002-9.16822,5.15048Zm-6.36425-5.10865l6.36425,3.57336,6.36251-3.57336-6.36251-3.33112-6.36425,3.33112Z"/></g><g><path class="d" d="M9.10374,29.3184L0,24.20452V15.00233l.71101-.386,.34156,.22306,8.05116,4.51701v9.962ZM1.33837,23.42206l6.42699,3.60995v-6.89141l-6.42699-3.60821v6.88967Z"/><path class="d" d="M7.76536,29.3184v-9.962l9.10374-5.1104v9.95852l-9.10374,5.11388Zm1.33837-9.1778v6.89141l6.42699-3.60995v-6.88967l-6.42699,3.60821Z"/><path class="d" d="M8.43455,20.46474L.01394,15.73425l-.00523-.81209,8.42584-4.4081,9.16822,4.8002-9.16822,5.15048ZM2.07204,15.35609l6.36251,3.57336,6.36251-3.57336-6.36251-3.33112-6.36251,3.33112Z"/></g></g><g><g><path class="d" d="M32.40156,41.91969l-9.10548-5.11214v-9.96026l9.10548,5.1104v9.962Zm-7.7671-5.89634l6.42873,3.60995v-6.89141l-6.42873-3.60821v6.88967Z"/><path class="d" d="M31.06319,41.91969v-9.962l9.10374-5.1104v9.96026l-9.10374,5.11214Zm1.33837-9.1778v6.89141l6.42699-3.60995v-6.88967l-6.42699,3.60821Z"/><path class="d" d="M31.73238,33.06603l-9.16996-5.14961,9.16996-4.8002,9.16822,4.8002-9.16822,5.14961Zm-6.36425-5.10778l6.36425,3.57248,6.36251-3.57248-6.36251-3.33112-6.36425,3.33112Z"/></g><g><path class="d" d="M16.8691,41.91969l-9.10374-5.11214v-9.96026l9.10374,5.1104v9.962Zm-7.76536-5.89634l6.42699,3.60995v-6.89141l-6.42699-3.60821v6.88967Z"/><path class="d" d="M15.53072,41.91969v-9.962l9.10374-5.1104v9.96026l-9.10374,5.11214Zm1.33837-9.1778v6.89141l6.42699-3.60995v-6.88967l-6.42699,3.60821Z"/><path class="d" d="M16.19991,33.06603l-9.16822-5.14961,9.16822-4.8002,9.16822,4.8002-9.16822,5.14961Zm-6.36251-5.10778l6.36251,3.57248,6.36251-3.57248-6.36251-3.33112-6.36251,3.33112Z"/></g></g><g><path class="d" d="M23.92345,54.23605l-.31717-.20738-8.07556-4.53444v-9.95939l9.10374,5.10952v9.20568l-.71101,.386Zm-7.05435-5.52602l6.42699,3.60995v-6.89141l-6.42699-3.60734v6.8888Z"/><path class="d" d="M23.94436,54.22124l-.64479-.3921-.00349-9.18477,9.10548-5.10952v9.95939l-8.4572,4.72701Zm.03485-.76503h0Zm.65525-8.02763v6.89228l6.42873-3.61082v-6.8888l-6.42873,3.60734Z"/><path class="d" d="M23.96702,45.7527l-9.16996-5.14961,9.16996-4.8002,9.16822,4.8002-9.16822,5.14961Zm-6.36425-5.10778l6.36425,3.57248,6.36251-3.57248-6.36251-3.33112-6.36425,3.33112Z"/></g><g><line class="d" x1="30.45928" y1="1.03154" x2="17.4727" y2="1.03154"/><rect class="d" x="16.80288" y=".36211" width="14.32479" height="1.33837"/></g><g><polygon class="d" points="26.26717 13.18461 8.57736 3.50445 9.79699 2.83248 26.86844 12.07408 26.26717 13.18461"/><polygon class="d" points="21.66489 13.18461 39.35469 3.50445 38.13507 2.83248 21.06362 12.07408 21.66489 13.18461"/></g></g></g></g></g></svg>