<svg width="80" height="80" viewBox="0 0 80 80" fill="none" xmlns="http://www.w3.org/2000/svg">
<circle cx="40" cy="40" r="39" fill="white" fill-opacity="0.75" stroke="#AE194A" stroke-width="2"/>
<path d="M1 36C1 32.134 4.13401 29 8 29H72C75.866 29 79 32.134 79 36V40C79 61.5391 61.5391 79 40 79V79C18.4609 79 1 61.5391 1 40V36Z" fill="#AE194A"/>
<path d="M4 41.235L4.01495 41.1869H6.08494C6.08494 41.9078 6.22692 42.4259 6.51089 42.7409C6.79486 43.056 7.22331 43.2136 7.79623 43.2136C8.24461 43.2136 8.5759 43.0854 8.79013 42.8291C9.00933 42.5727 9.11893 42.2256 9.11893 41.7877C9.11893 41.3338 9.00933 40.9759 8.79013 40.7143C8.57092 40.4472 8.18482 40.1856 7.63183 39.9292C6.50093 39.5073 5.65151 39.0294 5.08357 38.4953C4.52061 37.956 4.23913 37.203 4.23913 36.2363C4.23913 35.2804 4.56794 34.5034 5.22556 33.9053C5.88317 33.3018 6.72263 33.0001 7.74392 33.0001C8.78016 32.9947 9.62211 33.3285 10.2698 34.0014C10.8975 34.6529 11.2113 35.47 11.2113 36.4526C11.2113 36.4847 11.2113 36.514 11.2113 36.5407L11.1964 36.5888H9.13388C9.13388 36.0548 9.00933 35.6222 8.76024 35.2911C8.51114 34.96 8.15991 34.7944 7.70656 34.7944C7.28309 34.7944 6.95179 34.9333 6.71266 35.211C6.47851 35.4833 6.36144 35.8278 6.36144 36.2444C6.36144 36.6289 6.49346 36.9466 6.7575 37.1976C7.02154 37.4433 7.47988 37.7183 8.13251 38.0227C9.16377 38.3965 9.93846 38.8718 10.4566 39.4486C10.9797 40.02 11.2412 40.7944 11.2412 41.7717C11.2412 42.781 10.9274 43.5714 10.2997 44.1428C9.67193 44.7142 8.83746 44.9999 7.79623 44.9999C6.75999 45.0053 5.86324 44.6822 5.10599 44.0307C4.36866 43.4005 4 42.506 4 41.3471C4 41.3097 4 41.2723 4 41.235Z" fill="white"/>
<path d="M11.9736 34.9947V33.1683H18.9832V34.9947H16.532V44.8317H14.4097V34.9947H11.9736Z" fill="white"/>
<path d="M18.7067 44.8317L21.7706 33.1683H23.9825L27.0389 44.8317H24.8942L24.3039 42.3564H21.4343L20.8514 44.8317H18.7067ZM21.8677 40.522H23.8704L22.8915 36.3966H22.8466L21.8677 40.522Z" fill="white"/>
<path d="M27.8834 44.8317V33.1683H34.3549V34.9947H30.0132V38.1669H33.7048V39.9853H30.0132V44.8317H27.8834Z" fill="white"/>
<path d="M35.4758 44.8317V33.1683H41.9474V34.9947H37.6056V38.1669H41.2972V39.9853H37.6056V44.8317H35.4758Z" fill="white"/>
<path d="M46.4311 44.8317V33.1683H50.2124C51.2985 33.1683 52.1554 33.5127 52.7831 34.2017C53.4108 34.8906 53.7247 35.7931 53.7247 36.9092C53.7247 38.0307 53.4083 38.9359 52.7756 39.6248C52.1479 40.3084 51.2935 40.6502 50.2124 40.6502H48.5609V44.8317H46.4311ZM48.5609 38.8238H50.2124C50.6658 38.8238 51.012 38.6449 51.2511 38.2871C51.4903 37.9292 51.6098 37.4753 51.6098 36.9253C51.6098 36.3699 51.4903 35.9106 51.2511 35.5474C51.017 35.1789 50.6707 34.9947 50.2124 34.9947H48.5609V38.8238Z" fill="white"/>
<path d="M55.1968 44.8317V33.1683H57.3117V44.8317H55.1968Z" fill="white"/>
<path d="M58.8062 40.7463V37.2617C58.8062 35.9106 59.1301 34.8639 59.7777 34.1215C60.4303 33.3739 61.3022 33.0001 62.3932 33.0001C63.549 33.0001 64.4209 33.3312 65.0087 33.9934C65.6016 34.6556 65.908 35.6355 65.9279 36.9333L65.9055 36.9813H63.8579C63.8629 36.8905 63.8654 36.8024 63.8654 36.717C63.8654 36.0868 63.7657 35.6249 63.5665 35.3311C63.3423 34.9947 62.9512 34.8265 62.3932 34.8265C61.915 34.8265 61.5488 35.0267 61.2947 35.4273C61.0406 35.8278 60.9136 36.4339 60.9136 37.2457V40.7463C60.9136 41.5687 61.0481 42.1802 61.3171 42.5807C61.5911 42.9813 61.9897 43.1815 62.5128 43.1815C63.0309 43.1815 63.3896 43.0213 63.5889 42.7009C63.7682 42.4179 63.8579 41.9586 63.8579 41.3231C63.8579 41.243 63.8554 41.1602 63.8504 41.0747H65.898L65.9204 41.1228C65.9204 41.1442 65.9204 41.1655 65.9204 41.1869C65.9204 42.4365 65.6365 43.3818 65.0685 44.0226C64.4906 44.6742 63.6387 44.9999 62.5128 44.9999C61.3869 44.9999 60.4876 44.6314 59.8151 43.8945C59.1425 43.1522 58.8062 42.1028 58.8062 40.7463Z" fill="white"/>
<path d="M67.2058 44.8317V33.1683H69.3355V37.9106H70.023L72.1454 33.1683H74.7534L71.7867 38.4953L75 44.8317H72.4144L70.2622 39.9853H69.3355V44.8317H67.2058Z" fill="white"/>
<path fill-rule="evenodd" clip-rule="evenodd" d="M34.24 79.5884V76.1826L29.12 73.57V67.6917L24 65.0791V58.3935L29.76 55.4543L34.88 58.0669L38.5689 56.1846L29.12 51.2909L30.4 50.6364L39.9905 55.4495L48.96 50.6364L50.24 51.2909L41.3944 56.1659L45.12 58.0669L50.24 55.4543L56 58.3935V65.0791L50.88 67.6917V73.57L45.76 76.1826V79.5884C45.3355 79.6496 44.9087 79.7041 44.48 79.7519V76.8357L40.64 78.7951V79.995C40.4271 79.9983 40.2137 80 40 80C39.7863 80 39.5729 79.9983 39.36 79.995V78.7951L35.52 76.8357V79.7519C35.0913 79.7041 34.6645 79.6496 34.24 79.5884ZM40 56.9148L36.3111 58.7972L40 60.6795L43.6889 58.7972L40 56.9148ZM35.52 64.2718V59.854L39.36 61.8134V66.2312L35.52 64.2718ZM31.1911 67.288L34.88 65.4057L38.5689 67.288L34.88 69.1704L31.1911 67.288ZM30.4 61.8134L34.24 59.854V64.2718L30.4 66.2312V61.8134ZM25.28 59.854L29.12 61.8134V66.2312L25.28 64.2718V59.854ZM29.76 60.6795L33.4489 58.7972L29.76 56.9148L26.0711 58.7972L29.76 60.6795ZM45.76 59.854V64.2718L49.6 66.2312V61.8134L45.76 59.854ZM45.12 65.4057L41.4311 67.288L45.12 69.1704L48.8089 67.288L45.12 65.4057ZM44.48 59.854L40.64 61.8134V66.2312L44.48 64.2718V59.854ZM50.88 66.2312L54.72 64.2718V59.854L50.88 61.8134V66.2312ZM50.24 60.6795L53.9289 58.7972L50.24 56.9148L46.5511 58.7972L50.24 60.6795ZM43.6889 75.7789L40 73.8966L36.3111 75.7789L40 77.6612L43.6889 75.7789ZM39.36 72.7627V68.3448L35.52 70.3043V74.7221L39.36 72.7627ZM44.48 74.7221V70.3043L40.64 68.3448V72.7627L44.48 74.7221ZM30.4 68.3448L34.24 70.3043V74.7221L30.4 72.7627V68.3448ZM49.6 72.7627L45.76 74.7221V70.3043L49.6 68.3448V72.7627Z" fill="white"/>
<path d="M44.48 50.3063H34.88V49H44.48V50.3063Z" fill="white"/>
<path d="M38.5759 14.1125L36.6551 14.2818V20.9357H38.7369V16.485C39.0862 16.1768 39.5724 16.0227 40.1955 16.0227C40.5071 16.0227 40.7573 16.066 40.9461 16.1527V20.9302H43.0279V15.9938C43.0279 15.3581 42.858 14.8669 42.5181 14.5201C42.1876 14.1734 41.7014 14 41.0594 14C40.1153 14 39.3553 14.4045 38.7794 15.2136H38.6661L38.5759 14.1125Z" fill="#AE194A"/>
<path d="M33.2936 14.1137L35.3895 14.2818V20.9329H33.2936V14.1137Z" fill="#AE194A"/>
<path d="M28.4064 20.9329C27.4717 18.7079 26.7043 16.3887 26.185 14.1156L28.1808 14.282C28.5395 15.9484 28.984 17.4145 29.5127 19.0134H29.5694C30.0981 17.4627 30.509 15.9965 30.8772 14.282L32.8854 14.1156C32.385 16.3213 31.6487 18.6405 30.6952 20.9329H28.4064Z" fill="#AE194A"/>
<path d="M44.0753 14.1148L46.1713 14.2834V20.9321H44.0753V14.1148Z" fill="#AE194A"/>
<path d="M47.7201 20.2126C48.2771 20.8097 49.1663 21.0945 50.3937 21.0945C50.9885 21.0945 51.506 21.012 51.9403 20.8194C52.384 20.6267 52.79 20.3618 53.1582 20.0247L52.2235 18.4788C51.7137 18.893 51.1236 19.1001 50.4533 19.1001C49.9057 19.1001 49.5234 18.9797 49.3062 18.7389C49.0985 18.4884 48.9946 18.0984 48.9946 17.5686C48.9946 17.0677 49.0607 16.5958 49.1929 16.1527C49.4478 16.0757 49.7641 16.0371 50.1417 16.0371C50.4061 16.0371 50.6327 16.0564 50.8215 16.0949L50.9151 16.6377L52.6585 16.8456C52.7813 16.3255 52.8608 15.7 52.8608 15.1703V14.6502C52.1999 14.2552 51.3455 14.0578 50.2975 14.0578C49.2496 14.0578 48.4187 14.3853 47.8051 15.0402C47.2008 15.6856 46.8987 16.5573 46.8987 17.6553C46.8987 18.763 47.1725 19.6154 47.7201 20.2126Z" fill="#AE194A"/>
<path fill-rule="evenodd" clip-rule="evenodd" d="M56.3887 21.0939C55.2936 21.0939 54.4958 20.8001 53.9954 20.2126C53.495 19.625 53.2448 18.787 53.2448 17.6986C53.2448 16.9859 53.3865 16.3502 53.6697 15.7915C53.9624 15.2329 54.3778 14.7946 54.9159 14.4768C55.4635 14.1589 56.1102 14 56.8561 14C58.952 14 60 15.1462 60 17.4386C60 18.5462 59.7026 19.4324 59.1078 20.097C58.513 20.7616 57.6067 21.0939 56.3887 21.0939ZM56.6437 19.2879C57.0213 19.2879 57.3706 19.2397 57.6916 19.1434C57.8521 18.7292 57.9324 18.1947 57.9324 17.5397C57.9324 16.904 57.8332 16.4658 57.635 16.225C57.4462 15.9745 57.1016 15.8493 56.6012 15.8493C56.2424 15.8493 55.8931 15.8927 55.5532 15.9793C55.3927 16.3839 55.3125 16.9233 55.3125 17.5975C55.3125 18.2332 55.4069 18.6763 55.5957 18.9267C55.794 19.1675 56.1433 19.2879 56.6437 19.2879Z" fill="#AE194A"/>
<path fill-rule="evenodd" clip-rule="evenodd" d="M19.0001 17.0356C18.9937 16.482 19.2038 16.0404 19.4159 15.6586C19.6325 15.2716 19.9673 14.9703 20.4204 14.7549C20.8735 14.5394 21.4562 14.407 22.1683 14.3576L25.6214 14.1145L25.9433 15.7231H24.1945V15.836C25.0173 16.1105 25.3158 16.7891 25.324 17.4964C25.3321 18.1986 25.0925 18.7397 24.6052 19.1196C24.1224 19.4944 23.3713 19.6877 22.3519 19.6996C22.1488 19.702 21.8697 19.6684 21.59 19.6287C21.3828 19.7395 21.1735 20.0954 21.3424 20.1651C21.4512 20.21 21.6252 20.2464 21.8647 20.2743L23.4434 20.4635C24.2114 20.557 24.7844 20.7656 25.1626 21.0893C25.5407 21.4129 25.7769 21.9211 25.7849 22.608C25.7904 23.0849 25.6574 23.5598 25.3648 23.9474C25.1117 24.2938 24.7403 24.5519 24.2505 24.7217C23.5951 24.9578 22.8996 24.9912 22.2103 24.9993C21.5428 25.0071 20.9715 24.9522 20.4965 24.8348C20.026 24.7224 19.6675 24.5369 19.4209 24.2783C19.1457 23.9898 19.0047 23.5921 19.0001 23.2017C18.9915 22.4575 19.5367 21.8622 20.2971 21.7847L20.2962 21.7078C19.7424 21.6001 19.3375 21.1629 19.3309 20.5885L19.3308 20.5808C19.3281 20.3501 19.371 20.1548 19.4593 19.9949C19.5522 19.8349 19.6884 19.7128 19.8678 19.6287C20.0473 19.5395 20.2677 19.4856 20.5291 19.4672L20.5291 19.4047C20.3049 19.3098 20.1071 19.1919 19.9356 19.0512C19.3275 18.5521 19.009 17.7988 19.0001 17.0356ZM22.2918 23.2759C21.9716 23.2796 21.7074 23.2545 21.4993 23.2006C21.1743 23.1225 20.9431 22.9122 20.9389 22.549C20.9354 22.2489 21.0855 21.9091 21.4749 21.9091C22.1073 21.9091 22.9632 22.0282 23.6534 22.2373C23.7672 22.6511 23.6632 23.103 23.2788 23.1951C22.9784 23.2687 22.6671 23.2719 22.3593 23.2752L22.2918 23.2759ZM21.2104 17.9021C20.9824 17.491 20.9495 16.5737 21.2104 16.19C21.825 15.973 23.0183 16.0134 23.2788 16.4683C23.4811 16.8215 23.6044 17.5232 23.3778 17.9411C23.2009 18.2675 22.6084 18.3548 22.2847 18.3586C21.88 18.3633 21.436 18.2766 21.2104 17.9021Z" fill="#AE194A"/>
</svg>
