<?xml version="1.0" encoding="UTF-8"?><svg xmlns="http://www.w3.org/2000/svg" viewBox="0 0 30.73 39.09"><defs><style>.d{fill:#af1a4a;}.e{fill:none;stroke:#af1a4a;stroke-linecap:round;stroke-linejoin:round;stroke-width:1.5px;}</style></defs><g id="a"/><g id="b"><g id="c"><g><path class="e" d="M23.39,8.98C23.39,4.44,19.71,.75,15.16,.75S6.92,4.44,6.92,8.98s8.23,13.88,8.23,13.88c0,0,8.23-9.34,8.23-13.88Z"/><g><path class="d" d="M0,27.8c.73-.13,1.75-.23,3.14-.23,1.5,0,2.6,.32,3.32,.92,.67,.55,1.1,1.44,1.1,2.49s-.33,1.95-.97,2.55c-.82,.82-2.1,1.2-3.56,1.2-.38,0-.73-.02-1-.07v4.24H0v-11.1Zm2.04,5.24c.25,.07,.58,.08,1,.08,1.54,0,2.47-.75,2.47-2.07s-.87-1.92-2.29-1.92c-.57,0-.97,.05-1.19,.1v3.81Z"/><path class="d" d="M9.34,27.8c.9-.15,2.05-.23,3.27-.23,2.1,0,3.56,.43,4.59,1.3,1.09,.89,1.75,2.22,1.75,4.14s-.69,3.51-1.75,4.47c-1.12,1.02-2.9,1.54-5.09,1.54-1.2,0-2.1-.07-2.77-.15v-11.07Zm2.05,9.53c.28,.05,.72,.05,1.14,.05,2.67,.02,4.26-1.45,4.26-4.31,.02-2.49-1.42-3.91-3.99-3.91-.65,0-1.12,.05-1.4,.12v8.05Z"/><path class="d" d="M30.73,33.16c0,3.77-2.29,5.93-5.39,5.93s-5.18-2.42-5.18-5.73,2.17-5.89,5.34-5.89,5.23,2.49,5.23,5.69Zm-8.4,.17c0,2.29,1.15,4.11,3.12,4.11s3.11-1.84,3.11-4.19c0-2.12-1.05-4.12-3.11-4.12s-3.12,1.89-3.12,4.21Z"/></g><circle class="e" cx="15.16" cy="8.09" r="4.07"/><line class="e" x1="11.56" y1="22.87" x2="18.75" y2="22.87"/></g></g></g></svg>