<svg width="14" height="19" viewBox="0 0 14 19" fill="none" xmlns="http://www.w3.org/2000/svg">
<path d="M5 6.39441H9V9.39441L6.5 10.8944L5 10.3944V6.39441Z" fill="#D9D9D9"/>
<path d="M5 6.39441H9V9.39441L6.5 10.8944L5 10.3944V6.39441Z" fill="url(#paint0_linear_9_1030)"/>
<path d="M2.5 3.89441V8.89441M11.5 3.89441V8.39441" stroke="#AE194A" stroke-linecap="round"/>
<path d="M0.5 3.89441L7 0.394409L13.5 3.89441V5.39441L7 1.89441L0.5 5.39441V3.89441Z" fill="#AE194A"/>
<path d="M0.5 8.89441C5.5 8.89441 9.5 13.8944 13.5 13.8944" stroke="#84B988" stroke-linecap="round"/>
<path d="M0.5 11.8944C5.5 11.8944 9.5 15.8944 13.5 15.8944" stroke="#84B988" stroke-linecap="round"/>
<path d="M0.5 14.8944C5.5 14.8944 9.5 17.8944 13.5 17.8944" stroke="#84B988" stroke-linecap="round"/>
<path d="M13.5 8.89431C11 8.39438 8 9.39436 6.5 10.8944" stroke="#84B988" stroke-linecap="round"/>
<path d="M13.5 10.8943C12 10.3942 10 10.8944 8.5 11.8943" stroke="#84B988" stroke-linecap="round"/>
<rect x="6" y="3.39441" width="2" height="2" fill="#AE194A"/>
<defs>
<linearGradient id="paint0_linear_9_1030" x1="7.28053" y1="6.66645" x2="7.28554" y2="10.3262" gradientUnits="userSpaceOnUse">
<stop offset="0.0119908" stop-color="#E02951"/>
<stop offset="1" stop-color="#3E100F"/>
</linearGradient>
</defs>
</svg>
