<svg width="14" height="19" viewBox="0 0 14 19" fill="none" xmlns="http://www.w3.org/2000/svg">
<path d="M7.51874 2.89441C7.51874 2.89441 4.01875 11.5611 9.99349 11.5611C15.9682 11.5611 12.4977 2.89441 12.4977 2.89441H7.51874Z" fill="white"/>
<path d="M9.99349 11.5611C4.01875 11.5611 7.51874 2.89441 7.51874 2.89441H12.4977C12.4977 2.89441 15.9682 11.5611 9.99349 11.5611ZM9.99349 11.5611L10.0082 15.8944M7.5 15.8944H12.483" stroke="#BDC025" stroke-linecap="round"/>
<path d="M12.4611 9.97756C12.2414 10.3152 11.9497 10.5816 11.5675 10.7665C11.184 10.952 10.6755 11.0719 9.9933 11.0719C9.31106 11.0719 8.8032 10.952 8.42081 10.7667C8.03966 10.582 7.74924 10.3159 7.53084 9.97855C7.10232 9.31658 6.9634 8.39769 7.00793 7.39731H12.9933C13.0341 8.39703 12.892 9.31555 12.4611 9.97756Z" fill="url(#paint0_linear_9_1002)"/>
<path d="M1.80981 0.894409C1.80981 0.894409 -2.69017 12.2277 4.99163 12.2277C12.6734 12.2277 8.2113 0.894409 8.2113 0.894409H1.80981Z" fill="white" fill-opacity="0.66"/>
<path d="M4.99163 12.2277C-2.69017 12.2277 1.80981 0.894409 1.80981 0.894409H8.2113C8.2113 0.894409 12.6734 12.2277 4.99163 12.2277ZM4.99163 12.2277L5.01058 17.8944M1.80981 17.8944H8.19239" stroke="#AE194A" stroke-linecap="round"/>
<path d="M8.31107 10.1925C7.75555 11.0842 6.77007 11.7277 4.99162 11.7277C3.21314 11.7277 2.23066 11.0843 1.67872 10.1935C1.21493 9.44508 1.01913 8.46492 1.00134 7.39441H8.998C8.97646 8.46425 8.77736 9.44405 8.31107 10.1925Z" fill="url(#paint1_linear_9_1002)"/>
<defs>
<linearGradient id="paint0_linear_9_1002" x1="10" y1="7.39731" x2="10" y2="11.0719" gradientUnits="userSpaceOnUse">
<stop stop-color="#FEF2A1"/>
<stop offset="1" stop-color="#D1C901"/>
</linearGradient>
<linearGradient id="paint1_linear_9_1002" x1="5.56049" y1="7.68912" x2="5.56343" y2="11.6538" gradientUnits="userSpaceOnUse">
<stop offset="0.0119908" stop-color="#E02951"/>
<stop offset="1" stop-color="#3E100F"/>
</linearGradient>
</defs>
</svg>
